<?xml version="1.0" encoding="UTF-8"?>
<svg id="Layer_2" data-name="Layer 2" xmlns="http://www.w3.org/2000/svg" viewBox="0 0 1832.71 165">
  <g id="Layer_1-2" data-name="Layer 1">
    <g>
      <path d="M0,0h28.33v161.83H0V0Z"/>
      <path d="M78.88,124.21c.75,7.56,3.63,12.84,8.61,15.87,4.99,3.02,10.95,4.53,17.91,4.53,2.42,0,5.17-.19,8.27-.57,3.1-.38,6.01-1.09,8.73-2.15,2.72-1.06,4.95-2.61,6.69-4.65,1.74-2.04,2.53-4.72,2.38-8.05-.15-3.32-1.36-6.04-3.63-8.16-2.27-2.11-5.18-3.81-8.73-5.1-3.55-1.28-7.59-2.38-12.13-3.29-4.53-.91-9.14-1.89-13.83-2.95-4.84-1.06-9.48-2.34-13.94-3.85-4.46-1.51-8.46-3.55-12.01-6.12-3.55-2.57-6.39-5.85-8.5-9.86-2.12-4-3.17-8.95-3.17-14.85,0-6.35,1.55-11.67,4.65-15.98,3.1-4.31,7.03-7.78,11.79-10.43,4.76-2.64,10.05-4.49,15.87-5.55,5.81-1.06,11.37-1.59,16.66-1.59,6.04,0,11.82.64,17.34,1.93,5.51,1.29,10.5,3.36,14.96,6.23,4.46,2.87,8.16,6.61,11.11,11.22,2.95,4.61,4.8,10.16,5.55,16.66h-26.97c-1.21-6.19-4.04-10.35-8.5-12.47-4.46-2.11-9.56-3.17-15.3-3.17-1.81,0-3.97.15-6.46.45-2.49.3-4.84.87-7.03,1.7-2.19.83-4.04,2.04-5.55,3.63-1.51,1.59-2.27,3.67-2.27,6.23,0,3.17,1.09,5.74,3.29,7.71,2.19,1.97,5.06,3.59,8.61,4.87,3.55,1.29,7.59,2.38,12.13,3.29s9.21,1.89,14.05,2.95c4.68,1.06,9.29,2.34,13.83,3.85,4.53,1.51,8.57,3.55,12.13,6.12,3.55,2.57,6.42,5.82,8.61,9.75,2.19,3.93,3.29,8.77,3.29,14.51,0,6.95-1.59,12.84-4.76,17.68-3.17,4.84-7.29,8.77-12.35,11.79-5.06,3.02-10.69,5.21-16.89,6.57-6.2,1.36-12.32,2.04-18.36,2.04-7.41,0-14.24-.83-20.51-2.49-6.27-1.66-11.71-4.19-16.32-7.59-4.61-3.4-8.24-7.63-10.88-12.69-2.65-5.06-4.04-11.07-4.19-18.02h25.84Z"/>
      <path d="M177.02,44.65h24.48v16.32h.68c1.96-2.87,4.08-5.51,6.35-7.93,2.27-2.42,4.8-4.46,7.59-6.12,2.79-1.66,6.01-2.98,9.63-3.97,3.63-.98,7.78-1.47,12.47-1.47,7.1,0,13.71,1.59,19.83,4.76,6.12,3.17,10.46,8.08,13.03,14.73,4.38-6.04,9.44-10.8,15.19-14.28,5.74-3.47,12.92-5.21,21.53-5.21,12.39,0,22.02,3.02,28.9,9.07,6.87,6.05,10.31,16.17,10.31,30.37v80.91h-25.84v-68.45c0-4.68-.15-8.95-.45-12.81-.3-3.85-1.17-7.18-2.61-9.97-1.44-2.79-3.59-4.95-6.46-6.46-2.87-1.51-6.8-2.27-11.79-2.27-8.77,0-15.11,2.72-19.04,8.16-3.93,5.44-5.89,13.15-5.89,23.12v68.68h-25.84v-75.25c0-8.16-1.47-14.31-4.42-18.47-2.95-4.15-8.35-6.23-16.21-6.23-3.33,0-6.54.68-9.63,2.04-3.1,1.36-5.82,3.33-8.16,5.89-2.34,2.57-4.23,5.74-5.67,9.52-1.44,3.78-2.15,8.08-2.15,12.92v69.58h-25.84V44.65Z"/>
      <path d="M472.34,135.76c0,3.17.41,5.44,1.25,6.8.83,1.36,2.45,2.04,4.87,2.04h2.72c1.06,0,2.27-.15,3.63-.45v17.91c-.91.3-2.08.64-3.51,1.02-1.44.38-2.91.72-4.42,1.02-1.51.3-3.02.53-4.53.68-1.51.15-2.8.23-3.85.23-5.29,0-9.67-1.06-13.15-3.17-3.48-2.11-5.74-5.81-6.8-11.11-5.14,4.99-11.45,8.61-18.93,10.88s-14.7,3.4-21.65,3.4c-5.29,0-10.35-.72-15.19-2.15-4.84-1.43-9.1-3.55-12.81-6.35-3.7-2.79-6.65-6.35-8.84-10.65-2.19-4.31-3.29-9.33-3.29-15.07,0-7.25,1.32-13.15,3.97-17.68,2.64-4.53,6.12-8.08,10.43-10.65,4.31-2.57,9.14-4.42,14.51-5.55,5.36-1.13,10.77-2,16.21-2.61,4.68-.91,9.14-1.55,13.37-1.93,4.23-.38,7.97-1.02,11.22-1.93,3.25-.91,5.81-2.3,7.71-4.19s2.83-4.72,2.83-8.5c0-3.32-.79-6.04-2.38-8.16-1.59-2.11-3.55-3.74-5.89-4.87-2.34-1.13-4.95-1.89-7.82-2.27-2.87-.38-5.59-.57-8.16-.57-7.25,0-13.22,1.51-17.91,4.53-4.69,3.02-7.33,7.71-7.93,14.05h-25.84c.45-7.55,2.27-13.83,5.44-18.81,3.17-4.99,7.21-8.99,12.13-12.01,4.91-3.02,10.46-5.14,16.66-6.35,6.19-1.21,12.54-1.81,19.04-1.81,5.74,0,11.41.61,17,1.81,5.59,1.21,10.61,3.17,15.07,5.89,4.46,2.72,8.05,6.23,10.77,10.54,2.72,4.31,4.08,9.56,4.08,15.75v60.29ZM446.5,103.13c-3.93,2.57-8.77,4.12-14.51,4.65-5.74.53-11.48,1.32-17.23,2.38-2.72.45-5.37,1.1-7.93,1.93-2.57.83-4.84,1.97-6.8,3.4-1.97,1.44-3.51,3.33-4.65,5.67-1.13,2.34-1.7,5.18-1.7,8.5,0,2.87.83,5.29,2.49,7.25,1.66,1.97,3.66,3.51,6.01,4.65,2.34,1.13,4.91,1.93,7.71,2.38,2.79.45,5.33.68,7.59.68,2.87,0,5.97-.38,9.29-1.13,3.32-.75,6.46-2.04,9.41-3.85,2.95-1.81,5.4-4.12,7.37-6.91,1.96-2.79,2.95-6.23,2.95-10.31v-19.27Z"/>
      <path d="M500.9,0h25.84v24.48h-25.84V0ZM500.9,44.65h25.84v117.18h-25.84V44.65Z"/>
      <path d="M555.52,0h25.84v161.83h-25.84V0Z"/>
      <path d="M676.1,0h116.5v24.48h-88.17v42.38h81.59v23.12h-81.59v47.37h89.75v24.48h-118.09V0Z"/>
      <path d="M815.95,0h25.84v161.83h-25.84V0Z"/>
      <path d="M979.82,0h30.14l62.33,161.83h-30.37l-15.19-42.84h-64.6l-15.19,42.84h-29.24L979.82,0ZM969.84,97.46h49.41l-24.25-69.58h-.68l-24.48,69.58Z"/>
      <path d="M1182.21,135.76c0,3.17.41,5.44,1.25,6.8.83,1.36,2.45,2.04,4.87,2.04h2.72c1.06,0,2.27-.15,3.63-.45v17.91c-.91.3-2.08.64-3.51,1.02-1.44.38-2.91.72-4.42,1.02-1.51.3-3.02.53-4.53.68-1.51.15-2.8.23-3.85.23-5.29,0-9.67-1.06-13.15-3.17-3.48-2.11-5.74-5.81-6.8-11.11-5.14,4.99-11.45,8.61-18.93,10.88s-14.7,3.4-21.65,3.4c-5.29,0-10.35-.72-15.19-2.15-4.84-1.43-9.1-3.55-12.81-6.35-3.7-2.79-6.65-6.35-8.84-10.65-2.19-4.31-3.29-9.33-3.29-15.07,0-7.25,1.32-13.15,3.97-17.68,2.64-4.53,6.12-8.08,10.43-10.65,4.31-2.57,9.14-4.42,14.51-5.55,5.36-1.13,10.77-2,16.21-2.61,4.68-.91,9.14-1.55,13.37-1.93,4.23-.38,7.97-1.02,11.22-1.93,3.25-.91,5.81-2.3,7.71-4.19s2.83-4.72,2.83-8.5c0-3.32-.79-6.04-2.38-8.16-1.59-2.11-3.55-3.74-5.89-4.87-2.34-1.13-4.95-1.89-7.82-2.27-2.87-.38-5.59-.57-8.16-.57-7.25,0-13.22,1.51-17.91,4.53-4.69,3.02-7.33,7.71-7.93,14.05h-25.84c.45-7.55,2.27-13.83,5.44-18.81,3.17-4.99,7.21-8.99,12.13-12.01,4.91-3.02,10.46-5.14,16.66-6.35,6.19-1.21,12.54-1.81,19.04-1.81,5.74,0,11.41.61,17,1.81,5.59,1.21,10.61,3.17,15.07,5.89,4.46,2.72,8.05,6.23,10.77,10.54,2.72,4.31,4.08,9.56,4.08,15.75v60.29ZM1156.38,103.13c-3.93,2.57-8.77,4.12-14.51,4.65-5.74.53-11.48,1.32-17.23,2.38-2.72.45-5.37,1.1-7.93,1.93-2.57.83-4.84,1.97-6.8,3.4-1.97,1.44-3.51,3.33-4.65,5.67-1.13,2.34-1.7,5.18-1.7,8.5,0,2.87.83,5.29,2.49,7.25,1.66,1.97,3.66,3.51,6.01,4.65,2.34,1.13,4.91,1.93,7.71,2.38,2.79.45,5.33.68,7.59.68,2.87,0,5.97-.38,9.29-1.13,3.32-.75,6.46-2.04,9.41-3.85,2.95-1.81,5.4-4.12,7.37-6.91,1.96-2.79,2.95-6.23,2.95-10.31v-19.27Z"/>
      <path d="M1320.47,161.83h-24.48v-15.87h-.45c-3.48,6.8-8.54,11.67-15.19,14.62-6.65,2.95-13.68,4.42-21.08,4.42-9.22,0-17.26-1.63-24.14-4.87-6.88-3.25-12.58-7.67-17.11-13.26-4.53-5.59-7.93-12.2-10.2-19.83-2.27-7.63-3.4-15.83-3.4-24.59,0-10.57,1.43-19.72,4.31-27.42,2.87-7.71,6.69-14.05,11.45-19.04s10.2-8.65,16.32-10.99c6.12-2.34,12.35-3.51,18.7-3.51,3.63,0,7.33.34,11.11,1.02,3.78.68,7.4,1.78,10.88,3.29,3.47,1.51,6.69,3.44,9.63,5.78,2.95,2.34,5.4,5.1,7.37,8.27h.45V0h25.84v161.83ZM1230.27,104.49c0,4.99.64,9.9,1.93,14.73,1.28,4.84,3.25,9.14,5.89,12.92,2.64,3.78,6.01,6.8,10.09,9.07,4.08,2.27,8.91,3.4,14.51,3.4s10.69-1.21,14.85-3.63c4.15-2.42,7.55-5.59,10.2-9.52,2.64-3.93,4.61-8.35,5.89-13.26,1.28-4.91,1.93-9.93,1.93-15.07,0-12.99-2.91-23.12-8.73-30.37-5.82-7.25-13.71-10.88-23.69-10.88-6.05,0-11.15,1.25-15.3,3.74-4.16,2.49-7.56,5.74-10.2,9.75-2.65,4.01-4.53,8.54-5.67,13.6-1.13,5.06-1.7,10.24-1.7,15.53Z"/>
      <path d="M1458.96,161.83h-24.48v-15.87h-.45c-3.48,6.8-8.54,11.67-15.19,14.62-6.65,2.95-13.68,4.42-21.08,4.42-9.22,0-17.26-1.63-24.14-4.87-6.88-3.25-12.58-7.67-17.11-13.26-4.53-5.59-7.93-12.2-10.2-19.83-2.27-7.63-3.4-15.83-3.4-24.59,0-10.57,1.43-19.72,4.31-27.42,2.87-7.71,6.69-14.05,11.45-19.04s10.2-8.65,16.32-10.99c6.12-2.34,12.35-3.51,18.7-3.51,3.63,0,7.33.34,11.11,1.02,3.78.68,7.4,1.78,10.88,3.29,3.47,1.51,6.69,3.44,9.63,5.78,2.95,2.34,5.4,5.1,7.37,8.27h.45V0h25.84v161.83ZM1368.75,104.49c0,4.99.64,9.9,1.93,14.73,1.28,4.84,3.25,9.14,5.89,12.92,2.64,3.78,6.01,6.8,10.09,9.07,4.08,2.27,8.91,3.4,14.51,3.4s10.69-1.21,14.85-3.63c4.15-2.42,7.55-5.59,10.2-9.52,2.64-3.93,4.61-8.35,5.89-13.26,1.28-4.91,1.93-9.93,1.93-15.07,0-12.99-2.91-23.12-8.73-30.37-5.82-7.25-13.71-10.88-23.69-10.88-6.05,0-11.15,1.25-15.3,3.74-4.16,2.49-7.56,5.74-10.2,9.75-2.65,4.01-4.53,8.54-5.67,13.6-1.13,5.06-1.7,10.24-1.7,15.53Z"/>
      <path d="M1487.74,0h25.84v24.48h-25.84V0ZM1487.74,44.65h25.84v117.18h-25.84V44.65Z"/>
      <path d="M1595.4,165c-9.37,0-17.72-1.55-25.04-4.65-7.33-3.1-13.52-7.37-18.59-12.81-5.06-5.44-8.92-11.93-11.56-19.49-2.65-7.55-3.97-15.87-3.97-24.93s1.32-17.15,3.97-24.71c2.64-7.55,6.5-14.05,11.56-19.49,5.06-5.44,11.25-9.71,18.59-12.81,7.33-3.1,15.67-4.65,25.04-4.65s17.71,1.55,25.04,4.65c7.33,3.1,13.52,7.37,18.59,12.81,5.06,5.44,8.91,11.94,11.56,19.49,2.64,7.56,3.97,15.79,3.97,24.71s-1.32,17.38-3.97,24.93c-2.65,7.56-6.5,14.05-11.56,19.49-5.06,5.44-11.26,9.71-18.59,12.81-7.33,3.1-15.68,4.65-25.04,4.65ZM1595.4,144.6c5.74,0,10.73-1.21,14.96-3.63,4.23-2.42,7.71-5.59,10.43-9.52,2.72-3.93,4.72-8.35,6.01-13.26,1.28-4.91,1.93-9.93,1.93-15.07s-.64-9.97-1.93-14.96c-1.29-4.99-3.29-9.41-6.01-13.26-2.72-3.85-6.2-6.99-10.43-9.41-4.23-2.42-9.22-3.63-14.96-3.63s-10.73,1.21-14.96,3.63c-4.23,2.42-7.71,5.55-10.43,9.41s-4.72,8.27-6.01,13.26c-1.29,4.99-1.93,9.97-1.93,14.96s.64,10.16,1.93,15.07c1.28,4.91,3.29,9.33,6.01,13.26,2.72,3.93,6.19,7.1,10.43,9.52,4.23,2.42,9.21,3.63,14.96,3.63Z"/>
      <path d="M1778.99,161.83h-25.39v-16.32h-.45c-3.17,5.89-7.9,10.62-14.17,14.17-6.27,3.55-12.66,5.33-19.15,5.33-15.41,0-26.56-3.81-33.43-11.45-6.88-7.63-10.31-19.15-10.31-34.56V44.65h25.84v71.85c0,10.28,1.96,17.53,5.89,21.76,3.93,4.23,9.44,6.35,16.55,6.35,5.44,0,9.97-.83,13.6-2.49,3.63-1.66,6.57-3.89,8.84-6.69,2.27-2.79,3.89-6.16,4.87-10.09.98-3.93,1.47-8.16,1.47-12.69V44.65h25.84v117.18Z"/>
      <path d="M1806.87,0h25.84v24.48h-25.84V0ZM1806.87,44.65h25.84v117.18h-25.84V44.65Z"/>
    </g>
  </g>
</svg>