<?xml version="1.0" encoding="UTF-8"?>
<svg id="Layer_2" data-name="Layer 2" xmlns="http://www.w3.org/2000/svg" viewBox="0 0 1401.48 281.01">
  <defs>
    <style>
      .cls-1 {
        fill: #231f20;
      }
    </style>
  </defs>
  <g id="Layer_1-2" data-name="Layer 1">
    <g>
      <path class="cls-1" d="M1400.43,229.5c-4.11,1.4-7.89,2.51-11.34,3.34-3.45.83-6.27,1.24-8.45,1.24-.88,0-2.38-.2-4.52-.59-2.14-.39-4.3-1.03-6.48-1.9-2.19-.88-4.13-1.97-5.84-3.28-1.7-1.31-2.56-2.84-2.56-4.59,0-.87.33-1.75.98-2.62.65-.88,1.51-1.64,2.56-2.3,1.05-.66,2.18-1.18,3.41-1.57,1.22-.39,2.4-.59,3.54-.59,2.27,0,4.41.48,6.42,1.44,2.01.96,3.76,2.31,5.24,4.06h.92c.61-.88,1.18-1.81,1.7-2.82.53-1.01.98-2.01,1.38-3.01.39-1.01.72-1.97.98-2.88.26-.92.39-1.68.39-2.3,0-2.97-1.09-5.18-3.28-6.62-2.19-1.44-4.68-2.16-7.47-2.16-3.23,0-6.54,1.09-9.9,3.28-3.36,2.18-6.4,4.85-9.11,7.99-2.71,3.15-4.92,6.44-6.62,9.9-1.7,3.45-2.56,6.4-2.56,8.85,0,2.97,1.42,5.75,4.26,8.32,2.84,2.58,6.66,4.52,11.47,5.84-3.93,2.62-6.71,5.22-8.32,7.8-1.62,2.58-2.65,5.05-3.08,7.41.09,1.22.65,2.14,1.7,2.75,5.68-4.19,11.77-7.73,18.28-10.62,6.51-2.88,13.17-5.85,19.99-8.91,1.57-2.1,2.99-4.43,4.26-7.01,1.26-2.58,2.29-5.14,3.08-7.67l-1.05-.79Z"/>
      <path class="cls-1" d="M1364.65,83.62c1.14,6.64,2.34,13.57,3.61,20.77,1.26,7.21,2.47,14.4,3.6,21.56,1.14,7.17,2.08,14.18,2.82,21.03.74,6.86,1.11,13.26,1.11,19.2,0,1.49-.02,3.14-.07,4.98-.04,1.84-.11,3.67-.19,5.5-.09,1.84-.2,3.61-.33,5.31-.13,1.7-.33,3.17-.59,4.39l4.19.92c.87-1.66,1.86-3.87,2.95-6.62,1.09-2.75,2.14-5.98,3.15-9.7,1-3.72,1.83-7.89,2.49-12.52.65-4.63.98-9.66.98-15.07,0-3.15-.31-7.54-.91-13.17-.61-5.64-1.4-12.06-2.36-19.27-.96-7.21-2.01-14.9-3.14-23.07-1.14-8.17-2.23-16.34-3.28-24.51-1.05-8.17-1.99-16.12-2.82-23.85-.83-7.73-1.42-14.7-1.77-20.91h-1.44c-1.31,2.19-2.62,4.52-3.93,7.01-1.31,2.49-2.51,5.05-3.61,7.67-1.09,2.62-2.03,5.26-2.82,7.93-.79,2.66-1.31,5.31-1.57,7.93,0,4.55.37,9.76,1.11,15.67.74,5.9,1.68,12.17,2.82,18.8Z"/>
      <path class="cls-1" d="M1329.98,73.92c-.39-2.53-.85-4.87-1.38-7.01-.53-2.14-1.05-3.91-1.57-5.31h-2.23c-2.01,3.93-3.78,7.82-5.31,11.67-1.53,3.84-2.69,7.78-3.47,11.79,1.48,3.06,2.64,5.92,3.47,8.59.83,2.66,1.24,4.96,1.24,6.88,0,1.4-.24,2.78-.72,4.13-.48,1.35-1.42,2.03-2.82,2.03-2.01,0-4.31-.37-6.88-1.11-2.58-.74-5.13-1.75-7.67-3.01-2.54-1.27-4.89-2.71-7.08-4.33-2.19-1.62-3.93-3.34-5.24-5.18.79-2.8,1.55-6.05,2.3-9.76.74-3.71,1.29-7.45,1.64-11.21l-7.47-1.31c-1.23,5.94-2.67,11.34-4.33,16.19-1.66,4.85-3.69,8.98-6.1,12.39-2.4,3.41-5.18,6.05-8.32,7.93-3.15,1.88-6.73,2.82-10.75,2.82-1.84,0-3.69-.15-5.57-.46-1.88-.3-3.76-.87-5.64-1.7-1.88-.83-3.73-2.05-5.57-3.67-1.83-1.62-3.63-3.74-5.37-6.36-1.31-1.92-2.64-3.91-4-5.96-1.36-2.05-3-3.91-4.92-5.57-1.92-1.66-4.22-3.03-6.88-4.13-2.66-1.09-5.88-1.64-9.63-1.64-4.45,0-9.09,1.42-13.89,4.26-4.81,2.84-9.2,6.75-13.17,11.73-3.98,4.98-7.27,10.86-9.9,17.63-2.62,6.77-3.93,14.05-3.93,21.82,0,4.28.72,8.13,2.16,11.53,1.44,3.41,3.08,6.68,4.92,9.83-3.06.44-5.9,1.09-8.52,1.96-2.62.88-5.35,1.77-8.19,2.69-2.84.91-5.99,1.72-9.44,2.42-3.43.7-7.48,1.04-12.16,1.05-8.02,0-14.34-2.63-18.97-7.86-4.63-5.24-7.43-13.06-8.39-23.46l-9.17-96.86c-.53-5.33-1.33-10.81-2.42-16.45-1.1-5.64-2.47-10.68-4.13-15.14h-1.57c-1.14,1.66-2.31,3.58-3.54,5.77-1.22,2.19-2.4,4.54-3.54,7.08-1.14,2.54-2.19,5.18-3.15,7.93-.96,2.75-1.7,5.44-2.23,8.06,1.75,3.67,3.26,8.15,4.52,13.43,1.26,5.29,2.36,11.03,3.28,17.23.92,6.21,1.7,12.72,2.36,19.53.66,6.82,1.24,13.65,1.77,20.51.53,6.86,1.05,13.55,1.57,20.05.53,6.51,1.09,12.56,1.7,18.15.88,7.52,2.12,14.25,3.74,20.19,1.61,5.94,3.89,10.97,6.82,15.07,2.93,4.11,6.68,7.27,11.27,9.5,4.59,2.23,10.33,3.34,17.24,3.34,5.33,0,9.87-.46,13.63-1.38,3.76-.92,7.1-1.92,10.03-3.01,2.93-1.09,5.72-2.1,8.39-3.01,2.66-.91,5.61-1.37,8.85-1.37,3.58,0,7.19.52,10.81,1.57,3.63,1.05,7.29,2.49,11.01,4.33,3.71,1.83,7.47,3.95,11.27,6.36,3.8,2.4,7.67,4.91,11.6,7.54,3.41-5.15,5.94-10.01,7.6-14.55,1.66-4.54,2.49-9.43,2.49-14.68,0-3.49-1.14-6.38-3.41-8.65-2.27-2.27-5.11-4.26-8.52-5.96-3.41-1.7-7.08-3.32-11.01-4.85-3.93-1.53-7.56-3.3-10.88-5.31-5.77-3.49-10.03-7.4-12.78-11.73-2.75-4.33-4.13-8.85-4.13-13.57,0-1.4.65-3.06,1.96-4.98,1.31-1.92,3.08-3.78,5.31-5.57,2.23-1.79,4.85-3.3,7.86-4.52,3.01-1.22,6.18-1.83,9.5-1.83,2.71,0,4.96.35,6.75,1.05,1.79.7,3.34,1.66,4.65,2.88,1.31,1.23,2.47,2.65,3.47,4.26,1,1.62,2.12,3.39,3.34,5.31,1.4,2.01,2.79,4.02,4.19,6.03,1.4,2.01,3.21,3.82,5.44,5.44,2.23,1.62,5.02,2.93,8.39,3.93,3.36,1,7.75,1.51,13.17,1.51,2.8,0,5.68-.5,8.65-1.51,2.97-1,5.79-2.38,8.45-4.13,2.66-1.75,5.06-3.87,7.21-6.36,2.14-2.49,3.87-5.22,5.18-8.19,1.05,1.23,2.75,2.75,5.11,4.59,2.36,1.83,5.09,3.6,8.19,5.31,3.1,1.7,6.4,3.17,9.89,4.39,3.49,1.23,6.9,1.84,10.22,1.84,1.31,0,2.6-.72,3.87-2.16,1.26-1.44,2.45-3.36,3.54-5.77,1.09-2.4,2.07-5.13,2.95-8.19.87-3.05,1.64-6.2,2.29-9.43.66-3.23,1.16-6.42,1.51-9.57.35-3.14.53-5.94.53-8.39s-.13-4.87-.39-7.54c-.26-2.66-.59-5.26-.98-7.8Z"/>
      <path class="cls-1" d="M1039.41,129.88c-5.2,2.28-10.27,4.39-15.2,6.36-4.94,1.97-9.44,3.61-13.5,4.92-4.07,1.31-7.15,1.96-9.24,1.96-1.66,0-3.63-.44-5.9-1.31-2.27-.87-4.65-2.01-7.14-3.41-2.49-1.4-4.96-2.99-7.41-4.78-2.45-1.79-4.63-3.65-6.55-5.57-1.92-1.92-3.5-3.82-4.72-5.7-1.23-1.88-1.84-3.56-1.84-5.05,1.05-1.66,2.8-3.43,5.24-5.31,2.45-1.88,5.46-3.6,9.04-5.17,3.58-1.58,7.58-2.86,11.99-3.87,4.41-1,9.11-1.51,14.09-1.51,4.63,0,8.78.42,12.45,1.24,3.67.83,6.99,2.03,9.96,3.61l2.23-2.36c-2.18-2.71-4.68-5.39-7.47-8.06-2.8-2.66-5.77-5.05-8.91-7.14-3.15-2.1-6.38-3.8-9.7-5.11-3.32-1.31-6.6-1.96-9.83-1.96-3.58,0-7.19.81-10.81,2.42-3.63,1.62-7.12,3.82-10.48,6.62-3.36,2.8-6.51,6.01-9.44,9.63-2.93,3.63-5.49,7.43-7.67,11.4-2.18,3.98-3.89,8.02-5.11,12.13-1.22,4.11-1.83,7.99-1.83,11.66,0,2.01.56,4.11,1.7,6.29,1.13,2.19,2.56,4.31,4.26,6.36,1.7,2.05,3.58,3.96,5.63,5.7,2.05,1.75,4,3.19,5.84,4.33-2.1,1.05-4.46,2.03-7.08,2.95-2.62.92-5.35,1.7-8.19,2.36-2.84.66-5.73,1.16-8.65,1.51-2.93.35-5.75.52-8.45.52-.04,0-.09,0-.13,0h0c-8.04,0-14.61-.96-19.72-2.89-5.11-1.92-8.76-4.41-10.95-7.47,1.23-2.53,2.3-5.29,3.21-8.26.92-2.97,1.68-6.12,2.29-9.44l-7.73-2.49c-1.66,3.76-3.35,7.1-5.05,10.03-1.7,2.93-3.54,5.5-5.5,7.73-1.96,2.23-4.08,4.13-6.36,5.7-2.27,1.57-4.8,2.88-7.6,3.93-1.83.7-3.69,1.24-5.57,1.64-1.88.39-3.72.7-5.5.92-1.79.22-3.43.37-4.91.46-1.49.09-2.75.13-3.8.13-7.52,0-13.5-3.56-17.96-10.68-4.45-7.12-7.6-18.37-9.44-33.75-2.45-20.27-4.76-40.48-6.94-60.62-2.19-20.14-4.07-40.3-5.64-60.49h-1.44c-1.31,2.1-2.62,4.37-3.93,6.82-1.31,2.45-2.51,4.98-3.61,7.6-1.09,2.62-2.03,5.24-2.82,7.87s-1.31,5.15-1.58,7.6c.79,8.83,1.77,19.09,2.95,30.8,1.18,11.71,2.47,24.05,3.86,37.03,1.4,12.98,2.86,26.15,4.39,39.52,1.53,13.37,3.03,26.13,4.52,38.27v23.85c-2.8,4.63-6.27,8.8-10.42,12.51-4.15,3.72-8.76,6.88-13.83,9.5-5.07,2.62-10.45,4.65-16.12,6.1-5.68,1.44-11.4,2.16-17.17,2.16-7.78,0-14.46-1-20.05-3.01-5.59-2.01-10.18-4.74-13.76-8.19-3.59-3.45-6.21-7.49-7.87-12.13-1.66-4.63-2.49-9.61-2.49-14.94,0-2.62.22-5.4.65-8.32.44-2.93,1.05-5.87,1.84-8.85.79-2.97,1.7-5.94,2.75-8.91,1.05-2.97,2.14-5.77,3.28-8.39l-4.59-1.84c-1.84,3.5-3.65,7.34-5.44,11.53-1.79,4.19-3.36,8.6-4.71,13.24-1.36,4.63-2.45,9.39-3.28,14.28-.83,4.89-1.24,9.7-1.24,14.42,0,6.99.85,13.48,2.56,19.46,1.7,5.99,4.48,11.18,8.32,15.6,3.84,4.41,8.91,7.88,15.2,10.42,6.29,2.53,14.02,3.8,23.2,3.8,7.69,0,14.88-.89,21.56-2.69,6.69-1.79,12.78-4.19,18.28-7.21,5.5-3.01,10.36-6.48,14.55-10.42,4.19-3.93,7.69-8.08,10.48-12.45,2.01-3.23,3.65-6.82,4.92-10.74,1.26-3.93,2.21-7.3,2.82-10.09.44-4.37.74-9.11.92-14.22.18-5.11.26-9.76.26-13.96h1.31c2.01,4.72,5,8.5,8.98,11.34,3.98,2.84,8.59,4.26,13.83,4.26s10.02-.61,14.88-1.84c4.85-1.22,9.24-2.88,13.17-4.98,2.27-1.75,4.61-3.78,7.01-6.1,2.4-2.31,4.52-4.7,6.36-7.14h1.18c3.93,7.43,8.72,12.63,14.35,15.6,5.63,2.97,12.43,4.46,20.38,4.46,3.93,0,8.12-.41,12.58-1.24,4.45-.83,8.96-1.88,13.5-3.15,4.54-1.26,8.91-2.66,13.11-4.19,4.19-1.53,7.99-3.03,11.4-4.52,12.41-5.42,23.79-10.55,34.14-15.4,10.36-4.85,19.07-9.15,26.15-12.91l9.7-25.69-.92-1.05c-4.19,2.01-8.89,4.15-14.09,6.42Z"/>
      <path class="cls-1" d="M892.95,218.09c-1.84-1.4-3.63-2.75-5.37-4.07-1.75-1.31-3.28-2.45-4.59-3.41-1.92,2.45-3.89,5.29-5.9,8.52-2.01,3.23-3.76,6.16-5.24,8.78l-1.7.4-19.93-15.07c-.96,1.22-2.05,2.73-3.28,4.52-1.22,1.79-2.42,3.67-3.6,5.64-1.18,1.97-2.31,3.91-3.41,5.83s-1.99,3.63-2.69,5.11l20.05,14.94c2.53-2.97,4.76-6.07,6.68-9.31,1.92-3.23,3.36-5.77,4.33-7.6l1.7-.39c3.23,2.27,6.68,4.78,10.36,7.54,3.67,2.75,6.9,5.13,9.7,7.14.96-1.14,2.05-2.56,3.28-4.26,1.22-1.7,2.45-3.52,3.67-5.44,1.23-1.92,2.36-3.87,3.41-5.83,1.05-1.96,1.92-3.73,2.62-5.31-1.31-1.05-2.86-2.25-4.65-3.6-1.79-1.36-3.6-2.73-5.44-4.13Z"/>
      <path class="cls-1" d="M625.57,110.95c-.96-7.21-2.01-14.9-3.14-23.07-1.14-8.17-2.23-16.34-3.28-24.51-1.05-8.17-1.99-16.12-2.82-23.85-.83-7.73-1.42-14.7-1.77-20.91h-1.44c-1.31,2.19-2.62,4.52-3.93,7.01-1.31,2.49-2.51,5.05-3.61,7.67-1.09,2.62-2.03,5.26-2.82,7.93-.79,2.66-1.31,5.31-1.57,7.93,0,4.55.37,9.76,1.11,15.67.74,5.9,1.68,12.17,2.82,18.8,1.13,6.64,2.33,13.57,3.6,20.77,1.26,7.21,2.47,14.4,3.61,21.56,1.13,7.17,2.07,14.18,2.82,21.03.74,6.86,1.11,13.26,1.11,19.2,0,1.49-.02,3.14-.07,4.98-.04,1.84-.11,3.67-.19,5.5-.09,1.84-.2,3.61-.33,5.31-.13,1.7-.33,3.17-.59,4.39l4.19.92c.87-1.66,1.86-3.87,2.95-6.62,1.09-2.75,2.14-5.98,3.15-9.7,1-3.72,1.84-7.89,2.49-12.52.65-4.63.98-9.66.98-15.07,0-3.15-.31-7.54-.92-13.17-.61-5.64-1.4-12.06-2.36-19.27Z"/>
      <path class="cls-1" d="M562.6,42.33c1.09-1.48,2.1-3.34,3.01-5.57.91-2.23,1.77-4.72,2.56-7.47.79-2.75,1.52-5.57,2.23-8.45-1.66-1.57-3.49-3.12-5.5-4.65-2.01-1.53-3.93-3.12-5.77-4.78-1.84-1.66-3.39-3.41-4.65-5.24-1.27-1.84-2.03-3.89-2.3-6.16h-2.36c-.96,2.01-1.97,4.11-3.01,6.29-1.05,2.19-2.01,4.33-2.88,6.42-.88,2.1-1.59,4.08-2.16,5.96-.57,1.88-.85,3.61-.85,5.18,0,1.92.3,3.52.92,4.78.61,1.27,1.44,2.56,2.49,3.87-.53,2.36-.79,4.89-.79,7.6s.24,6.48.72,11.08c.48,4.59,1.14,9.72,1.96,15.4.83,5.68,1.75,11.73,2.75,18.16,1,6.42,2.05,12.89,3.14,19.4,1.09,6.51,2.16,12.89,3.21,19.14,1.05,6.25,1.96,11.99,2.75,17.23.18,2.01.26,4.11.26,6.29v6.16c-1.31,2.54-2.65,4.43-4,5.7-1.35,1.26-3.56,1.9-6.62,1.9-1.93,0-4.35-.24-7.27-.72-2.93-.48-6.16-1.14-9.7-1.97-3.54-.83-7.3-1.88-11.27-3.14-3.98-1.26-8.06-2.69-12.25-4.26,1.57-1.57,2.91-3.3,4-5.18,1.09-1.88,2.01-3.71,2.75-5.5.74-1.79,1.29-3.52,1.64-5.18.35-1.66.53-3.1.53-4.33,0-2.62-1.14-5.17-3.41-7.67-2.27-2.49-5.2-4.74-8.78-6.75-3.58-2.01-7.58-3.62-11.99-4.85s-8.76-1.84-13.04-1.84c-5.77,0-11.06.94-15.86,2.82-4.8,1.88-9.13,4.13-12.97,6.75-2.19,4.19-4.05,8.37-5.57,12.51-1.53,4.15-2.82,8.37-3.87,12.65l4.06,1.58c.79-.7,1.58-1.16,2.36-1.38.79-.22,1.57-.33,2.36-.33,1.31,0,2.8.26,4.46.79,1.66.53,3.29,1.16,4.91,1.9,1.61.74,3.17,1.55,4.65,2.43,1.49.87,2.75,1.7,3.8,2.49-2.01,1.31-4.39,2.8-7.14,4.45-2.75,1.66-5.83,3.21-9.24,4.65-3.41,1.44-7.08,2.65-11.01,3.61-3.93.96-8.04,1.44-12.32,1.44-.04,0-.09,0-.13,0h0c-8.21,0-14.98-2.34-20.31-7.01-5.33-4.67-9-11.9-11.01-21.69-2.88-13.11-5.57-25.93-8.06-38.47s-5-25.36-7.54-38.47h-2.36c-1.14,2.1-2.27,4.26-3.41,6.49-1.14,2.23-2.16,4.48-3.08,6.75-.92,2.27-1.66,4.5-2.23,6.68-.57,2.19-.85,4.24-.85,6.16,0,1.49.26,4.11.79,7.86.52,3.76,1.18,7.99,1.96,12.71s1.64,9.61,2.56,14.68c.92,5.07,1.77,9.61,2.56,13.63,0,2.88-.15,5.31-.46,7.27-.31,1.97-.79,3.65-1.44,5.05-.66,1.4-1.51,2.56-2.56,3.47-1.05.92-2.28,1.77-3.67,2.56-5.15,2.71-10.77,4.65-16.84,5.84-6.08,1.18-11.86,1.77-17.37,1.77-3.41,0-6.31-.17-8.72-.52-2.4-.35-4.37-.85-5.9-1.51-1.53-.65-2.71-1.42-3.54-2.29-.83-.88-1.42-1.84-1.77-2.89-.61-1.57-1.03-3.14-1.24-4.71-.22-1.58-.42-3.15-.59-4.72h-5.64c-1.49,5.07-2.73,10.05-3.73,14.94s-1.51,9.66-1.51,14.28c0,3.06.44,5.57,1.31,7.54.88,1.96,2.31,3.5,4.33,4.59,2.01,1.09,4.72,1.84,8.13,2.23,3.41.39,7.69.59,12.85.59,4.1,0,8.28-.31,12.51-.92,4.24-.61,8.39-1.53,12.45-2.75,4.07-1.22,7.91-2.71,11.53-4.45,3.63-1.75,6.88-3.8,9.76-6.16,1.84-2.27,3.47-5.15,4.91-8.65,1.44-3.49,2.56-6.95,3.35-10.36h1.18c1.4,7.95,3.6,14.33,6.62,19.14,3.01,4.81,6.44,8.5,10.29,11.08,3.84,2.58,7.89,4.28,12.12,5.11,4.24.83,8.19,1.24,11.86,1.24,10.66,0,20.93-2.16,30.8-6.49,9.87-4.33,19.09-10.46,27.66-18.41l4.19-3.41c5.24,3.67,10.64,6.99,16.19,9.96,5.55,2.97,10.9,5.53,16.05,7.67,5.15,2.14,9.94,3.8,14.35,4.98,4.41,1.18,8.19,1.77,11.34,1.77,3.67,0,6.7-.63,9.11-1.9,2.4-1.27,4.48-2.91,6.22-4.92,1.14-2.1,2.3-4.72,3.47-7.86,1.18-3.15,2.21-6.6,3.08-10.36.87-3.75,1.6-7.69,2.16-11.79.57-4.11.85-8.21.85-12.32,0-4.63-.42-10.38-1.24-17.23-.83-6.86-1.84-14.4-3.01-22.61s-2.4-16.89-3.67-26.02c-1.27-9.13-2.34-18.28-3.21-27.46,1.31-.44,2.51-1.4,3.61-2.89Z"/>
      <path class="cls-1" d="M270.72,111.08c-2.58-5.38-5.72-9.61-9.44-12.71-3.72-3.1-7.89-4.66-12.51-4.66-1.84,0-3.8.66-5.9,1.97-2.1,1.31-4.2,3.12-6.29,5.44-2.1,2.31-4.13,5.07-6.09,8.26-1.97,3.19-3.72,6.64-5.24,10.35-1.53,3.72-2.75,7.62-3.67,11.73-.92,4.11-1.38,8.25-1.38,12.45,0,3.59.68,6.91,2.03,9.96,1.35,3.06,3.21,5.7,5.57,7.93s5.09,3.98,8.19,5.24c3.1,1.27,6.36,1.9,9.76,1.9,2.88,0,5.39-.28,7.54-.85,2.14-.56,4-1.35,5.57-2.36,1.57-1,2.9-2.16,4-3.47s2.08-2.75,2.95-4.33h1.44c.44,1.05.76,2.32.98,3.8.22,1.49.33,2.89.33,4.19-1.75,5.94-4.22,11.86-7.41,17.76s-6.92,11.51-11.2,16.84c-4.28,5.33-9.04,10.29-14.29,14.88-5.24,4.59-10.74,8.56-16.51,11.93-5.77,3.36-11.73,6.01-17.89,7.93-6.16,1.92-12.3,2.88-18.41,2.88-4.46,0-9.15-.28-14.09-.85-4.94-.57-9.9-1.37-14.88-2.42l-1.31,4.72c5.07,1.75,10.27,3.49,15.6,5.24,5.33,1.75,10.53,3.32,15.6,4.72,5.07,1.4,9.85,2.53,14.35,3.41,4.5.87,8.45,1.31,11.86,1.31,6.2,0,12.23-1.4,18.09-4.19,5.85-2.8,11.32-6.6,16.39-11.4,5.06-4.8,9.7-10.46,13.89-16.97s7.8-13.5,10.81-20.97c3.01-7.47,5.35-15.25,7.01-23.33,1.66-8.08,2.49-16.1,2.49-24.05s-.68-16.07-2.03-23.33c-1.35-7.25-3.32-13.56-5.9-18.94ZM252.37,140.43c-1.96,1.79-3.65,2.69-5.05,2.69-2.27,0-4.31-.39-6.1-1.18-1.79-.79-3.32-1.79-4.59-3.01-1.27-1.22-2.25-2.6-2.95-4.13-.7-1.53-1.09-3.03-1.18-4.52.18-.52.5-1.29.98-2.29.48-1,1.18-2.01,2.1-3.01.91-1,2.05-1.88,3.41-2.62,1.35-.74,3.03-1.11,5.05-1.11,1.05,0,2.23.35,3.54,1.05,1.31.7,2.58,1.64,3.8,2.82,1.23,1.18,2.31,2.49,3.28,3.93.96,1.44,1.7,2.91,2.23,4.39-1.05,2.88-2.55,5.22-4.52,7.01Z"/>
      <path class="cls-1" d="M107.61,249.81c-1.84-1.4-3.63-2.75-5.37-4.06-1.75-1.31-3.28-2.45-4.59-3.41-1.92,2.44-3.89,5.28-5.9,8.52s-3.76,6.16-5.24,8.78l-1.7.39-19.92-15.07c-.96,1.23-2.05,2.73-3.28,4.52-1.23,1.79-2.42,3.67-3.6,5.63-1.18,1.97-2.32,3.91-3.41,5.84-1.09,1.92-1.99,3.63-2.69,5.11l20.05,14.94c2.53-2.97,4.76-6.08,6.68-9.31s3.36-5.77,4.33-7.6l1.7-.39c3.23,2.27,6.68,4.78,10.36,7.54,3.67,2.75,6.9,5.13,9.7,7.14.96-1.14,2.05-2.56,3.28-4.26,1.22-1.7,2.45-3.52,3.67-5.44,1.23-1.93,2.36-3.87,3.41-5.84,1.05-1.96,1.92-3.73,2.62-5.31-1.31-1.05-2.86-2.25-4.65-3.61-1.79-1.35-3.6-2.73-5.44-4.13Z"/>
      <path class="cls-1" d="M157.87,176.94c.83-2.27,1.51-4.59,2.03-6.95.53-2.36.79-4.59.79-6.68,0-2.62-.55-4.87-1.64-6.75-1.09-1.88-2.88-3.47-5.37-4.78-2.49-1.31-5.73-2.38-9.7-3.21-3.98-.83-8.89-1.51-14.74-2.03-26.56-2.44-39.84-6.82-39.84-13.11,0-2.71.87-5.68,2.62-8.91,1.75-3.23,4.06-6.51,6.94-9.83,2.89-3.32,6.2-6.53,9.96-9.63,3.75-3.1,7.64-5.85,11.66-8.26,4.02-2.4,8.02-4.33,11.99-5.77,3.98-1.44,7.67-2.16,11.08-2.16,1.4,0,2.8.31,4.19.92,1.4.61,2.73,1.38,4,2.29,1.26.92,2.44,1.93,3.54,3.01,1.09,1.09,2.03,2.12,2.82,3.08h2.49c.61-1.31,1.26-2.9,1.96-4.78.7-1.88,1.38-3.87,2.03-5.96.65-2.1,1.22-4.21,1.7-6.36.48-2.14.81-4.08.98-5.83-.53-1.57-1.29-3.08-2.29-4.52-1.01-1.44-2.3-2.75-3.87-3.93-1.58-1.18-3.36-2.12-5.38-2.82-2.01-.7-4.24-1.05-6.68-1.05-4.63,0-9.61,1.2-14.94,3.61s-10.66,5.59-15.99,9.57c-5.33,3.98-10.44,8.54-15.33,13.7-4.89,5.15-9.22,10.46-12.97,15.92-3.76,5.46-6.77,10.88-9.04,16.25-2.27,5.37-3.41,10.29-3.41,14.74,0,6.38.76,11.47,2.3,15.27,1.53,3.8,3.86,6.73,7.01,8.78,3.15,2.05,7.14,3.43,11.99,4.13,4.85.7,10.64,1.18,17.37,1.44,5.94.18,10.88.41,14.81.72s7.08.68,9.44,1.11c2.36.44,4.02.88,4.98,1.31.96.44,1.44.83,1.44,1.18-4.28,3.67-9.61,7.26-15.99,10.75-6.38,3.5-13.21,6.64-20.51,9.44-7.3,2.79-14.7,5.05-22.22,6.75-7.52,1.7-14.59,2.56-21.23,2.56-8.48,0-16.05-.92-22.74-2.75-6.68-1.83-12.36-4.63-17.03-8.39-4.68-3.75-8.24-8.41-10.68-13.96-2.45-5.55-3.67-12.08-3.67-19.59,0-3.67.42-7.45,1.24-11.34.83-3.89,1.92-7.73,3.28-11.53,1.35-3.8,2.86-7.54,4.52-11.21,1.66-3.67,3.32-7.12,4.98-10.35l-4.72-2.1c-2.53,4.19-5.11,8.8-7.73,13.83-2.62,5.03-4.98,10.31-7.08,15.86-2.1,5.55-3.82,11.27-5.17,17.17-1.36,5.9-2.03,11.86-2.03,17.89,0,6.47.81,12.95,2.43,19.46,1.61,6.51,4.52,12.36,8.71,17.56,4.19,5.2,9.9,9.44,17.11,12.71,7.21,3.28,16.36,4.92,27.46,4.92,9.78,0,19.44-1.16,28.97-3.47,9.52-2.32,18.5-5.31,26.94-8.98,8.43-3.67,16.1-7.82,23-12.45,6.9-4.63,12.63-9.26,17.17-13.89,1.05-1.84,2.12-3.82,3.21-5.96,1.09-2.14,2.05-4.35,2.89-6.62Z"/>
    </g>
  </g>
</svg>